<?xml version="1.0" encoding="UTF-8" standalone="no"?>
<svg
   class="svglite"
   width="576.00pt"
   height="432.00pt"
   viewBox="0 0 576.00 432.00"
   version="1.1"
   id="svg185"
   sodipodi:docname="UK_Sites_boundingbox.svg"
   inkscape:version="1.2.2 (732a01da63, 2022-12-09)"
   xmlns:inkscape="http://www.inkscape.org/namespaces/inkscape"
   xmlns:sodipodi="http://sodipodi.sourceforge.net/DTD/sodipodi-0.dtd"
   xmlns="http://www.w3.org/2000/svg"
   xmlns:svg="http://www.w3.org/2000/svg">
  <sodipodi:namedview
     id="namedview187"
     pagecolor="#505050"
     bordercolor="#eeeeee"
     borderopacity="1"
     inkscape:showpageshadow="0"
     inkscape:pageopacity="0"
     inkscape:pagecheckerboard="0"
     inkscape:deskcolor="#505050"
     inkscape:document-units="pt"
     showgrid="false"
     inkscape:zoom="2.220984"
     inkscape:cx="322.82989"
     inkscape:cy="272.62691"
     inkscape:window-width="1920"
     inkscape:window-height="991"
     inkscape:window-x="-9"
     inkscape:window-y="-9"
     inkscape:window-maximized="1"
     inkscape:current-layer="svg185" />
  <defs
     id="defs4">
    <style
       type="text/css"
       id="style2"><![CDATA[
    .svglite line, .svglite polyline, .svglite polygon, .svglite path, .svglite rect, .svglite circle {
      fill: none;
      stroke: #000000;
      stroke-linecap: round;
      stroke-linejoin: round;
      stroke-miterlimit: 10.00;
    }
    .svglite text {
      white-space: pre;
    }
  ]]></style>
  </defs>
  <rect
     width="100%"
     height="100%"
     style="stroke: none; fill: none;"
     id="rect6" />
  <defs
     id="defs11">
    <clipPath
       id="cpMC4wMHw1NzYuMDB8MC4wMHw0MzIuMDA=">
      <rect
         x="0.00"
         y="0.00"
         width="576.00"
         height="432.00"
         id="rect8" />
    </clipPath>
  </defs>
  <g
     clip-path="url(#cpMC4wMHw1NzYuMDB8MC4wMHw0MzIuMDA=)"
     id="g13" />
  <defs
     id="defs18">
    <clipPath
       id="cpMTY0LjQ1fDQxMS41NXwwLjAwfDQzMi4wMA==">
      <rect
         x="164.45"
         y="0.00"
         width="247.10"
         height="432.00"
         id="rect15" />
    </clipPath>
  </defs>
  <g
     clip-path="url(#cpMTY0LjQ1fDQxMS41NXwwLjAwfDQzMi4wMA==)"
     id="g20" />
  <g
     clip-path="url(#cpMC4wMHw1NzYuMDB8MC4wMHw0MzIuMDA=)"
     id="g22" />
  <defs
     id="defs27">
    <clipPath
       id="cpMTk0LjMyfDQwNi4wN3w1LjQ4fDQxMy4zMA==">
      <rect
         x="194.32"
         y="5.48"
         width="211.75"
         height="407.82"
         id="rect24" />
    </clipPath>
  </defs>
  <g
     clip-path="url(#cpMTk0LjMyfDQwNi4wN3w1LjQ4fDQxMy4zMA==)"
     id="g111">
    <polyline
       points="206.77,413.30 206.77,410.74 206.77,405.89 206.77,401.04 206.77,396.19 206.77,391.34 206.77,386.49 206.77,381.64 206.77,376.79 206.77,371.94 206.77,367.09 206.77,362.24 206.77,357.39 206.77,352.54 206.77,347.69 206.77,342.84 206.77,337.99 206.77,333.14 206.77,328.29 206.77,323.44 206.77,318.59 206.77,313.74 206.77,308.89 206.77,304.04 206.77,299.19 206.77,294.34 206.77,289.49 206.77,284.64 206.77,279.80 206.77,274.95 206.77,270.10 206.77,265.25 206.77,260.40 206.77,255.55 206.77,250.70 206.77,245.85 206.77,241.00 206.77,236.15 206.77,231.30 206.77,226.45 206.77,221.60 206.77,216.75 206.77,211.90 206.77,207.05 206.77,202.20 206.77,197.35 206.77,192.50 206.77,187.65 206.77,182.80 206.77,177.95 206.77,173.10 206.77,168.25 206.77,163.40 206.77,158.55 206.77,153.70 206.77,148.85 206.77,144.00 206.77,139.15 206.77,134.30 206.77,129.45 206.77,124.60 206.77,119.75 206.77,114.90 206.77,110.05 206.77,105.20 206.77,100.35 206.77,95.50 206.77,90.65 206.77,85.80 206.77,80.95 206.77,76.10 206.77,71.25 206.77,66.40 206.77,61.55 206.77,56.70 206.77,51.85 206.77,47.00 206.77,42.15 206.77,37.30 206.77,32.45 206.77,27.60 206.77,22.75 206.77,17.90 206.77,13.06 206.77,8.21 206.77,5.48 "
       style="stroke-width: 1.07; stroke: #EBEBEB;"
       id="polyline29" />
    <polyline
       points="245.69,413.30 245.69,410.74 245.69,405.89 245.69,401.04 245.69,396.19 245.69,391.34 245.69,386.49 245.69,381.64 245.69,376.79 245.69,371.94 245.69,367.09 245.69,362.24 245.69,357.39 245.69,352.54 245.69,347.69 245.69,342.84 245.69,337.99 245.69,333.14 245.69,328.29 245.69,323.44 245.69,318.59 245.69,313.74 245.69,308.89 245.69,304.04 245.69,299.19 245.69,294.34 245.69,289.49 245.69,284.64 245.69,279.80 245.69,274.95 245.69,270.10 245.69,265.25 245.69,260.40 245.69,255.55 245.69,250.70 245.69,245.85 245.69,241.00 245.69,236.15 245.69,231.30 245.69,226.45 245.69,221.60 245.69,216.75 245.69,211.90 245.69,207.05 245.69,202.20 245.69,197.35 245.69,192.50 245.69,187.65 245.69,182.80 245.69,177.95 245.69,173.10 245.69,168.25 245.69,163.40 245.69,158.55 245.69,153.70 245.69,148.85 245.69,144.00 245.69,139.15 245.69,134.30 245.69,129.45 245.69,124.60 245.69,119.75 245.69,114.90 245.69,110.05 245.69,105.20 245.69,100.35 245.69,95.50 245.69,90.65 245.69,85.80 245.69,80.95 245.69,76.10 245.69,71.25 245.69,66.40 245.69,61.55 245.69,56.70 245.69,51.85 245.69,47.00 245.69,42.15 245.69,37.30 245.69,32.45 245.69,27.60 245.69,22.75 245.69,17.90 245.69,13.06 245.69,8.21 245.69,5.48 "
       style="stroke-width: 1.07; stroke: #EBEBEB;"
       id="polyline31" />
    <polyline
       points="284.61,413.30 284.61,410.74 284.61,405.89 284.61,401.04 284.61,396.19 284.61,391.34 284.61,386.49 284.61,381.64 284.61,376.79 284.61,371.94 284.61,367.09 284.61,362.24 284.61,357.39 284.61,352.54 284.61,347.69 284.61,342.84 284.61,337.99 284.61,333.14 284.61,328.29 284.61,323.44 284.61,318.59 284.61,313.74 284.61,308.89 284.61,304.04 284.61,299.19 284.61,294.34 284.61,289.49 284.61,284.64 284.61,279.80 284.61,274.95 284.61,270.10 284.61,265.25 284.61,260.40 284.61,255.55 284.61,250.70 284.61,245.85 284.61,241.00 284.61,236.15 284.61,231.30 284.61,226.45 284.61,221.60 284.61,216.75 284.61,211.90 284.61,207.05 284.61,202.20 284.61,197.35 284.61,192.50 284.61,187.65 284.61,182.80 284.61,177.95 284.61,173.10 284.61,168.25 284.61,163.40 284.61,158.55 284.61,153.70 284.61,148.85 284.61,144.00 284.61,139.15 284.61,134.30 284.61,129.45 284.61,124.60 284.61,119.75 284.61,114.90 284.61,110.05 284.61,105.20 284.61,100.35 284.61,95.50 284.61,90.65 284.61,85.80 284.61,80.95 284.61,76.10 284.61,71.25 284.61,66.40 284.61,61.55 284.61,56.70 284.61,51.85 284.61,47.00 284.61,42.15 284.61,37.30 284.61,32.45 284.61,27.60 284.61,22.75 284.61,17.90 284.61,13.06 284.61,8.21 284.61,5.48 "
       style="stroke-width: 1.07; stroke: #EBEBEB;"
       id="polyline33" />
    <polyline
       points="323.53,413.30 323.53,410.74 323.53,405.89 323.53,401.04 323.53,396.19 323.53,391.34 323.53,386.49 323.53,381.64 323.53,376.79 323.53,371.94 323.53,367.09 323.53,362.24 323.53,357.39 323.53,352.54 323.53,347.69 323.53,342.84 323.53,337.99 323.53,333.14 323.53,328.29 323.53,323.44 323.53,318.59 323.53,313.74 323.53,308.89 323.53,304.04 323.53,299.19 323.53,294.34 323.53,289.49 323.53,284.64 323.53,279.80 323.53,274.95 323.53,270.10 323.53,265.25 323.53,260.40 323.53,255.55 323.53,250.70 323.53,245.85 323.53,241.00 323.53,236.15 323.53,231.30 323.53,226.45 323.53,221.60 323.53,216.75 323.53,211.90 323.53,207.05 323.53,202.20 323.53,197.35 323.53,192.50 323.53,187.65 323.53,182.80 323.53,177.95 323.53,173.10 323.53,168.25 323.53,163.40 323.53,158.55 323.53,153.70 323.53,148.85 323.53,144.00 323.53,139.15 323.53,134.30 323.53,129.45 323.53,124.60 323.53,119.75 323.53,114.90 323.53,110.05 323.53,105.20 323.53,100.35 323.53,95.50 323.53,90.65 323.53,85.80 323.53,80.95 323.53,76.10 323.53,71.25 323.53,66.40 323.53,61.55 323.53,56.70 323.53,51.85 323.53,47.00 323.53,42.15 323.53,37.30 323.53,32.45 323.53,27.60 323.53,22.75 323.53,17.90 323.53,13.06 323.53,8.21 323.53,5.48 "
       style="stroke-width: 1.07; stroke: #EBEBEB;"
       id="polyline35" />
    <polyline
       points="362.46,413.30 362.46,410.74 362.46,405.89 362.46,401.04 362.46,396.19 362.46,391.34 362.46,386.49 362.46,381.64 362.46,376.79 362.46,371.94 362.46,367.09 362.46,362.24 362.46,357.39 362.46,352.54 362.46,347.69 362.46,342.84 362.46,337.99 362.46,333.14 362.46,328.29 362.46,323.44 362.46,318.59 362.46,313.74 362.46,308.89 362.46,304.04 362.46,299.19 362.46,294.34 362.46,289.49 362.46,284.64 362.46,279.80 362.46,274.95 362.46,270.10 362.46,265.25 362.46,260.40 362.46,255.55 362.46,250.70 362.46,245.85 362.46,241.00 362.46,236.15 362.46,231.30 362.46,226.45 362.46,221.60 362.46,216.75 362.46,211.90 362.46,207.05 362.46,202.20 362.46,197.35 362.46,192.50 362.46,187.65 362.46,182.80 362.46,177.95 362.46,173.10 362.46,168.25 362.46,163.40 362.46,158.55 362.46,153.70 362.46,148.85 362.46,144.00 362.46,139.15 362.46,134.30 362.46,129.45 362.46,124.60 362.46,119.75 362.46,114.90 362.46,110.05 362.46,105.20 362.46,100.35 362.46,95.50 362.46,90.65 362.46,85.80 362.46,80.95 362.46,76.10 362.46,71.25 362.46,66.40 362.46,61.55 362.46,56.70 362.46,51.85 362.46,47.00 362.46,42.15 362.46,37.30 362.46,32.45 362.46,27.60 362.46,22.75 362.46,17.90 362.46,13.06 362.46,8.21 362.46,5.48 "
       style="stroke-width: 1.07; stroke: #EBEBEB;"
       id="polyline37" />
    <polyline
       points="401.38,413.30 401.38,410.74 401.38,405.89 401.38,401.04 401.38,396.19 401.38,391.34 401.38,386.49 401.38,381.64 401.38,376.79 401.38,371.94 401.38,367.09 401.38,362.24 401.38,357.39 401.38,352.54 401.38,347.69 401.38,342.84 401.38,337.99 401.38,333.14 401.38,328.29 401.38,323.44 401.38,318.59 401.38,313.74 401.38,308.89 401.38,304.04 401.38,299.19 401.38,294.34 401.38,289.49 401.38,284.64 401.38,279.80 401.38,274.95 401.38,270.10 401.38,265.25 401.38,260.40 401.38,255.55 401.38,250.70 401.38,245.85 401.38,241.00 401.38,236.15 401.38,231.30 401.38,226.45 401.38,221.60 401.38,216.75 401.38,211.90 401.38,207.05 401.38,202.20 401.38,197.35 401.38,192.50 401.38,187.65 401.38,182.80 401.38,177.95 401.38,173.10 401.38,168.25 401.38,163.40 401.38,158.55 401.38,153.70 401.38,148.85 401.38,144.00 401.38,139.15 401.38,134.30 401.38,129.45 401.38,124.60 401.38,119.75 401.38,114.90 401.38,110.05 401.38,105.20 401.38,100.35 401.38,95.50 401.38,90.65 401.38,85.80 401.38,80.95 401.38,76.10 401.38,71.25 401.38,66.40 401.38,61.55 401.38,56.70 401.38,51.85 401.38,47.00 401.38,42.15 401.38,37.30 401.38,32.45 401.38,27.60 401.38,22.75 401.38,17.90 401.38,13.06 401.38,8.21 401.38,5.48 "
       style="stroke-width: 1.07; stroke: #EBEBEB;"
       id="polyline39" />
    <polyline
       points="194.32,395.50 195.36,395.50 198.12,395.50 200.87,395.50 203.62,395.50 206.37,395.50 209.12,395.50 211.88,395.50 214.63,395.50 217.38,395.50 220.13,395.50 222.89,395.50 225.64,395.50 228.39,395.50 231.14,395.50 233.89,395.50 236.65,395.50 239.40,395.50 242.15,395.50 244.90,395.50 247.65,395.50 250.41,395.50 253.16,395.50 255.91,395.50 258.66,395.50 261.41,395.50 264.17,395.50 266.92,395.50 269.67,395.50 272.42,395.50 275.17,395.50 277.93,395.50 280.68,395.50 283.43,395.50 286.18,395.50 288.94,395.50 291.69,395.50 294.44,395.50 297.19,395.50 299.94,395.50 302.70,395.50 305.45,395.50 308.20,395.50 310.95,395.50 313.70,395.50 316.46,395.50 319.21,395.50 321.96,395.50 324.71,395.50 327.46,395.50 330.22,395.50 332.97,395.50 335.72,395.50 338.47,395.50 341.22,395.50 343.98,395.50 346.73,395.50 349.48,395.50 352.23,395.50 354.99,395.50 357.74,395.50 360.49,395.50 363.24,395.50 365.99,395.50 368.75,395.50 371.50,395.50 374.25,395.50 377.00,395.50 379.75,395.50 382.51,395.50 385.26,395.50 388.01,395.50 390.76,395.50 393.51,395.50 396.27,395.50 399.02,395.50 401.77,395.50 404.52,395.50 406.07,395.50 "
       style="stroke-width: 1.07; stroke: #EBEBEB;"
       id="polyline41" />
    <polyline
       points="194.32,326.91 195.36,326.91 198.12,326.91 200.87,326.91 203.62,326.91 206.37,326.91 209.12,326.91 211.88,326.91 214.63,326.91 217.38,326.91 220.13,326.91 222.89,326.91 225.64,326.91 228.39,326.91 231.14,326.91 233.89,326.91 236.65,326.91 239.40,326.91 242.15,326.91 244.90,326.91 247.65,326.91 250.41,326.91 253.16,326.91 255.91,326.91 258.66,326.91 261.41,326.91 264.17,326.91 266.92,326.91 269.67,326.91 272.42,326.91 275.17,326.91 277.93,326.91 280.68,326.91 283.43,326.91 286.18,326.91 288.94,326.91 291.69,326.91 294.44,326.91 297.19,326.91 299.94,326.91 302.70,326.91 305.45,326.91 308.20,326.91 310.95,326.91 313.70,326.91 316.46,326.91 319.21,326.91 321.96,326.91 324.71,326.91 327.46,326.91 330.22,326.91 332.97,326.91 335.72,326.91 338.47,326.91 341.22,326.91 343.98,326.91 346.73,326.91 349.48,326.91 352.23,326.91 354.99,326.91 357.74,326.91 360.49,326.91 363.24,326.91 365.99,326.91 368.75,326.91 371.50,326.91 374.25,326.91 377.00,326.91 379.75,326.91 382.51,326.91 385.26,326.91 388.01,326.91 390.76,326.91 393.51,326.91 396.27,326.91 399.02,326.91 401.77,326.91 404.52,326.91 406.07,326.91 "
       style="stroke-width: 1.07; stroke: #EBEBEB;"
       id="polyline43" />
    <polyline
       points="194.32,258.32 195.36,258.32 198.12,258.32 200.87,258.32 203.62,258.32 206.37,258.32 209.12,258.32 211.88,258.32 214.63,258.32 217.38,258.32 220.13,258.32 222.89,258.32 225.64,258.32 228.39,258.32 231.14,258.32 233.89,258.32 236.65,258.32 239.40,258.32 242.15,258.32 244.90,258.32 247.65,258.32 250.41,258.32 253.16,258.32 255.91,258.32 258.66,258.32 261.41,258.32 264.17,258.32 266.92,258.32 269.67,258.32 272.42,258.32 275.17,258.32 277.93,258.32 280.68,258.32 283.43,258.32 286.18,258.32 288.94,258.32 291.69,258.32 294.44,258.32 297.19,258.32 299.94,258.32 302.70,258.32 305.45,258.32 308.20,258.32 310.95,258.32 313.70,258.32 316.46,258.32 319.21,258.32 321.96,258.32 324.71,258.32 327.46,258.32 330.22,258.32 332.97,258.32 335.72,258.32 338.47,258.32 341.22,258.32 343.98,258.32 346.73,258.32 349.48,258.32 352.23,258.32 354.99,258.32 357.74,258.32 360.49,258.32 363.24,258.32 365.99,258.32 368.75,258.32 371.50,258.32 374.25,258.32 377.00,258.32 379.75,258.32 382.51,258.32 385.26,258.32 388.01,258.32 390.76,258.32 393.51,258.32 396.27,258.32 399.02,258.32 401.77,258.32 404.52,258.32 406.07,258.32 "
       style="stroke-width: 1.07; stroke: #EBEBEB;"
       id="polyline45" />
    <polyline
       points="194.32,189.73 195.36,189.73 198.12,189.73 200.87,189.73 203.62,189.73 206.37,189.73 209.12,189.73 211.88,189.73 214.63,189.73 217.38,189.73 220.13,189.73 222.89,189.73 225.64,189.73 228.39,189.73 231.14,189.73 233.89,189.73 236.65,189.73 239.40,189.73 242.15,189.73 244.90,189.73 247.65,189.73 250.41,189.73 253.16,189.73 255.91,189.73 258.66,189.73 261.41,189.73 264.17,189.73 266.92,189.73 269.67,189.73 272.42,189.73 275.17,189.73 277.93,189.73 280.68,189.73 283.43,189.73 286.18,189.73 288.94,189.73 291.69,189.73 294.44,189.73 297.19,189.73 299.94,189.73 302.70,189.73 305.45,189.73 308.20,189.73 310.95,189.73 313.70,189.73 316.46,189.73 319.21,189.73 321.96,189.73 324.71,189.73 327.46,189.73 330.22,189.73 332.97,189.73 335.72,189.73 338.47,189.73 341.22,189.73 343.98,189.73 346.73,189.73 349.48,189.73 352.23,189.73 354.99,189.73 357.74,189.73 360.49,189.73 363.24,189.73 365.99,189.73 368.75,189.73 371.50,189.73 374.25,189.73 377.00,189.73 379.75,189.73 382.51,189.73 385.26,189.73 388.01,189.73 390.76,189.73 393.51,189.73 396.27,189.73 399.02,189.73 401.77,189.73 404.52,189.73 406.07,189.73 "
       style="stroke-width: 1.07; stroke: #EBEBEB;"
       id="polyline47" />
    <polyline
       points="194.32,121.14 195.36,121.14 198.12,121.14 200.87,121.14 203.62,121.14 206.37,121.14 209.12,121.14 211.88,121.14 214.63,121.14 217.38,121.14 220.13,121.14 222.89,121.14 225.64,121.14 228.39,121.14 231.14,121.14 233.89,121.14 236.65,121.14 239.40,121.14 242.15,121.14 244.90,121.14 247.65,121.14 250.41,121.14 253.16,121.14 255.91,121.14 258.66,121.14 261.41,121.14 264.17,121.14 266.92,121.14 269.67,121.14 272.42,121.14 275.17,121.14 277.93,121.14 280.68,121.14 283.43,121.14 286.18,121.14 288.94,121.14 291.69,121.14 294.44,121.14 297.19,121.14 299.94,121.14 302.70,121.14 305.45,121.14 308.20,121.14 310.95,121.14 313.70,121.14 316.46,121.14 319.21,121.14 321.96,121.14 324.71,121.14 327.46,121.14 330.22,121.14 332.97,121.14 335.72,121.14 338.47,121.14 341.22,121.14 343.98,121.14 346.73,121.14 349.48,121.14 352.23,121.14 354.99,121.14 357.74,121.14 360.49,121.14 363.24,121.14 365.99,121.14 368.75,121.14 371.50,121.14 374.25,121.14 377.00,121.14 379.75,121.14 382.51,121.14 385.26,121.14 388.01,121.14 390.76,121.14 393.51,121.14 396.27,121.14 399.02,121.14 401.77,121.14 404.52,121.14 406.07,121.14 "
       style="stroke-width: 1.07; stroke: #EBEBEB;"
       id="polyline49" />
    <polyline
       points="194.32,52.55 195.36,52.55 198.12,52.55 200.87,52.55 203.62,52.55 206.37,52.55 209.12,52.55 211.88,52.55 214.63,52.55 217.38,52.55 220.13,52.55 222.89,52.55 225.64,52.55 228.39,52.55 231.14,52.55 233.89,52.55 236.65,52.55 239.40,52.55 242.15,52.55 244.90,52.55 247.65,52.55 250.41,52.55 253.16,52.55 255.91,52.55 258.66,52.55 261.41,52.55 264.17,52.55 266.92,52.55 269.67,52.55 272.42,52.55 275.17,52.55 277.93,52.55 280.68,52.55 283.43,52.55 286.18,52.55 288.94,52.55 291.69,52.55 294.44,52.55 297.19,52.55 299.94,52.55 302.70,52.55 305.45,52.55 308.20,52.55 310.95,52.55 313.70,52.55 316.46,52.55 319.21,52.55 321.96,52.55 324.71,52.55 327.46,52.55 330.22,52.55 332.97,52.55 335.72,52.55 338.47,52.55 341.22,52.55 343.98,52.55 346.73,52.55 349.48,52.55 352.23,52.55 354.99,52.55 357.74,52.55 360.49,52.55 363.24,52.55 365.99,52.55 368.75,52.55 371.50,52.55 374.25,52.55 377.00,52.55 379.75,52.55 382.51,52.55 385.26,52.55 388.01,52.55 390.76,52.55 393.51,52.55 396.27,52.55 399.02,52.55 401.77,52.55 404.52,52.55 406.07,52.55 "
       style="stroke-width: 1.07; stroke: #EBEBEB;"
       id="polyline51" />
    <path
       d="M 310.54 339.84 L 309.09 341.27 L 304.49 342.72 L 302.51 344.20 L 299.04 347.54 L 298.37 347.81 L 293.13 347.01 L 289.23 342.69 L 286.74 340.91 L 285.71 340.71 L 284.64 341.24 L 282.37 341.78 L 280.05 341.69 L 281.23 339.69 L 282.84 338.57 L 279.24 337.80 L 278.23 337.19 L 277.09 335.79 L 274.27 335.55 L 272.92 335.91 L 270.64 337.76 L 267.05 339.72 L 262.72 337.00 L 261.87 335.80 L 261.89 333.49 L 261.25 331.66 L 260.04 331.02 L 261.58 328.63 L 263.44 327.05 L 267.51 325.47 L 273.69 321.73 L 277.15 320.14 L 280.37 317.39 L 281.70 315.72 L 282.67 313.43 L 283.63 310.61 L 284.99 308.33 L 283.67 307.78 L 283.07 306.06 L 283.23 304.31 L 283.85 302.76 L 283.30 300.82 L 282.32 298.78 L 282.38 297.20 L 282.64 295.51 L 280.15 295.60 L 277.67 296.13 L 275.43 297.33 L 273.25 298.96 L 271.32 299.26 L 271.35 297.96 L 272.19 296.35 L 274.38 294.05 L 276.73 292.14 L 277.56 290.69 L 278.22 289.01 L 279.38 287.66 L 282.45 285.10 L 288.32 282.23 L 289.20 282.06 L 291.50 282.40 L 293.77 281.96 L 295.75 280.93 L 297.72 280.71 L 302.17 283.69 L 300.85 279.08 L 302.81 277.97 L 305.66 282.14 L 306.72 282.58 L 308.95 281.97 L 308.09 281.27 L 307.08 281.23 L 305.76 280.60 L 304.66 279.26 L 302.81 275.02 L 302.91 272.51 L 304.16 269.89 L 305.53 267.48 L 304.38 267.00 L 303.45 266.08 L 303.19 263.67 L 303.55 261.54 L 306.02 259.67 L 306.75 256.81 L 307.06 253.68 L 306.65 252.24 L 304.20 252.47 L 303.01 253.06 L 301.94 253.99 L 300.84 253.93 L 297.81 250.46 L 296.09 247.84 L 292.99 242.28 L 292.55 238.96 L 295.03 231.80 L 298.86 227.23 L 303.37 225.63 L 302.49 225.33 L 295.62 225.26 L 293.36 225.83 L 291.26 227.70 L 290.07 228.27 L 288.83 228.48 L 287.69 229.41 L 286.58 230.71 L 285.43 231.53 L 283.14 231.32 L 282.02 231.59 L 281.22 230.84 L 280.55 229.61 L 279.68 229.28 L 278.70 229.66 L 276.63 231.32 L 274.54 232.31 L 272.01 231.26 L 268.69 229.30 L 268.04 230.01 L 267.30 231.83 L 266.88 234.67 L 264.52 232.21 L 262.51 228.91 L 261.84 226.84 L 261.79 224.51 L 262.88 223.60 L 264.06 224.43 L 265.83 218.90 L 269.34 211.70 L 270.58 209.58 L 271.44 206.83 L 271.29 205.03 L 270.52 203.50 L 267.25 200.05 L 267.30 197.23 L 267.65 194.05 L 268.53 192.14 L 268.91 191.78 L 273.24 191.83 L 271.55 190.85 L 268.18 187.97 L 268.24 186.95 L 269.04 184.30 L 268.67 184.57 L 267.95 185.79 L 266.57 188.76 L 265.73 189.46 L 263.34 190.16 L 262.91 191.63 L 262.53 192.01 L 261.34 192.17 L 260.97 193.54 L 260.71 193.63 L 260.37 192.15 L 260.34 189.71 L 260.81 187.47 L 261.72 185.71 L 265.21 181.72 L 263.51 182.96 L 259.66 186.64 L 257.69 189.07 L 257.16 189.89 L 257.00 190.58 L 257.01 191.37 L 257.89 195.64 L 257.64 197.61 L 254.32 210.66 L 253.69 211.97 L 253.11 212.66 L 252.57 212.81 L 250.93 212.56 L 250.20 211.59 L 250.21 210.48 L 250.51 208.81 L 251.89 202.62 L 252.49 200.90 L 253.37 199.30 L 255.33 196.50 L 255.28 196.32 L 253.98 196.87 L 253.43 196.69 L 253.03 196.14 L 253.29 187.83 L 254.34 185.10 L 254.74 181.12 L 255.65 177.72 L 256.71 175.24 L 257.52 172.07 L 258.74 170.66 L 259.06 168.51 L 260.43 166.17 L 261.48 163.73 L 260.92 163.97 L 254.17 170.33 L 252.45 171.48 L 250.11 171.17 L 248.32 170.46 L 246.92 168.95 L 246.29 166.07 L 244.57 165.99 L 243.09 165.49 L 243.10 165.10 L 245.01 163.53 L 248.07 162.99 L 250.93 160.47 L 248.39 158.77 L 248.60 158.23 L 250.82 156.78 L 253.64 151.92 L 254.21 147.45 L 252.86 145.35 L 252.38 143.97 L 249.68 142.44 L 249.23 140.48 L 249.54 139.38 L 250.42 138.31 L 251.75 137.48 L 253.83 136.68 L 251.94 135.83 L 251.24 134.82 L 250.70 133.36 L 250.65 132.51 L 251.63 128.74 L 252.20 127.19 L 253.31 125.21 L 258.36 125.32 L 258.94 124.44 L 259.51 124.41 L 262.09 125.21 L 261.71 124.35 L 257.49 119.64 L 257.11 118.75 L 258.31 116.21 L 258.40 115.08 L 258.22 113.87 L 258.57 112.95 L 259.90 112.51 L 263.98 112.56 L 264.99 112.13 L 264.53 110.91 L 263.58 109.30 L 263.40 107.95 L 263.62 106.76 L 263.67 104.36 L 263.86 103.30 L 264.82 101.71 L 265.62 101.23 L 266.62 100.96 L 268.85 101.49 L 269.71 102.13 L 270.69 103.65 L 271.41 103.52 L 274.20 101.88 L 275.04 101.64 L 276.18 103.55 L 280.94 102.03 L 287.34 101.35 L 291.19 100.34 L 295.24 99.98 L 299.03 98.84 L 303.04 99.37 L 303.17 100.03 L 302.96 100.94 L 301.94 103.46 L 302.10 106.26 L 301.87 107.11 L 301.41 108.16 L 299.94 110.12 L 296.07 112.92 L 288.99 119.35 L 284.80 122.54 L 284.23 124.08 L 283.92 126.21 L 286.42 126.64 L 287.39 127.36 L 286.79 128.44 L 283.08 132.21 L 281.99 135.62 L 284.83 135.50 L 287.18 134.84 L 291.85 132.72 L 296.23 131.14 L 298.34 131.08 L 302.44 132.33 L 303.37 132.37 L 305.11 131.79 L 306.87 131.69 L 318.78 132.08 L 322.09 131.34 L 324.28 132.23 L 326.11 134.43 L 327.85 138.50 L 327.80 139.18 L 326.75 141.03 L 324.81 143.35 L 323.14 146.55 L 322.65 148.28 L 322.32 150.17 L 321.79 151.92 L 318.47 160.12 L 315.23 164.67 L 313.78 167.90 L 312.00 170.47 L 310.28 172.09 L 308.45 173.16 L 303.15 174.32 L 301.67 175.14 L 299.90 176.56 L 298.04 177.26 L 300.22 177.17 L 302.38 176.38 L 306.31 176.09 L 310.83 178.81 L 310.41 181.04 L 308.59 182.79 L 304.47 183.07 L 300.60 186.98 L 298.86 188.18 L 297.02 188.78 L 294.72 188.60 L 290.54 187.56 L 288.72 186.46 L 290.37 188.25 L 292.24 189.18 L 303.12 191.37 L 303.78 191.15 L 307.25 188.83 L 311.87 188.79 L 320.67 193.05 L 323.21 196.31 L 326.84 200.99 L 328.81 202.81 L 330.24 204.46 L 331.12 206.94 L 332.82 215.12 L 334.77 223.12 L 337.32 231.78 L 338.47 234.18 L 339.99 235.87 L 347.68 239.75 L 349.39 241.04 L 352.37 244.77 L 355.25 248.74 L 357.92 251.80 L 360.81 254.27 L 359.41 255.55 L 358.45 257.57 L 359.17 260.32 L 360.35 262.94 L 362.66 267.14 L 364.70 271.72 L 363.95 271.03 L 363.16 270.65 L 362.08 270.76 L 361.02 270.54 L 359.07 269.10 L 357.20 267.34 L 353.48 268.05 L 351.41 267.74 L 349.61 267.78 L 353.02 268.80 L 356.74 268.87 L 364.95 276.55 L 367.73 281.11 L 369.38 287.13 L 368.26 289.83 L 366.51 291.58 L 364.88 293.59 L 363.35 295.85 L 367.90 299.17 L 368.88 299.07 L 369.89 298.61 L 370.86 297.48 L 372.49 294.73 L 373.33 293.75 L 376.17 293.39 L 378.54 293.60 L 380.91 294.21 L 383.00 294.02 L 387.20 295.20 L 389.35 296.26 L 394.70 301.06 L 395.85 303.68 L 396.38 307.07 L 396.45 310.82 L 395.55 314.26 L 394.51 317.36 L 393.88 321.36 L 393.43 322.80 L 392.79 323.93 L 389.96 327.09 L 388.08 328.38 L 387.29 327.82 L 386.44 327.89 L 386.35 328.65 L 387.25 330.27 L 387.26 332.21 L 385.58 333.65 L 383.89 334.27 L 381.04 333.50 L 377.09 336.18 L 379.93 337.56 L 380.50 339.03 L 379.79 341.61 L 378.01 342.76 L 376.03 343.26 L 374.00 343.39 L 372.33 344.02 L 370.72 345.23 L 372.74 344.59 L 374.14 345.15 L 375.02 347.32 L 375.82 347.95 L 379.76 348.87 L 382.21 348.87 L 386.92 348.34 L 389.18 348.35 L 389.99 348.74 L 390.00 350.54 L 389.65 354.96 L 389.03 355.87 L 382.78 359.58 L 381.50 362.17 L 381.14 363.74 L 377.49 363.47 L 375.77 365.13 L 372.81 366.23 L 370.53 367.40 L 368.29 368.89 L 366.45 369.33 L 358.49 367.57 L 353.68 367.71 L 347.17 369.25 L 345.50 368.99 L 342.98 367.53 L 340.41 366.53 L 337.45 366.10 L 334.89 364.74 L 336.48 367.35 L 332.94 369.86 L 331.30 370.36 L 329.61 370.29 L 326.14 370.97 L 322.93 370.62 L 323.41 372.41 L 324.27 373.97 L 323.57 374.65 L 322.84 374.82 L 316.72 373.64 L 315.85 373.86 L 315.10 374.95 L 312.87 374.36 L 310.71 372.53 L 308.41 371.30 L 306.00 370.72 L 304.08 370.92 L 296.20 373.81 L 294.62 376.71 L 293.84 380.81 L 292.70 384.46 L 290.84 387.27 L 288.63 387.64 L 286.55 385.69 L 282.60 383.54 L 281.25 382.09 L 280.82 382.01 L 280.38 382.53 L 278.83 383.18 L 277.23 383.21 L 274.75 383.79 L 270.44 385.54 L 268.70 386.72 L 264.96 389.99 L 264.20 390.89 L 262.84 394.18 L 260.77 394.76 L 258.87 392.65 L 256.70 391.92 L 254.42 392.64 L 253.04 393.76 L 252.40 392.85 L 252.38 390.97 L 254.04 388.74 L 258.49 387.06 L 262.39 382.68 L 264.30 380.01 L 265.06 378.51 L 266.00 377.56 L 267.22 377.19 L 267.85 375.54 L 273.27 368.87 L 273.71 367.34 L 273.98 364.61 L 274.43 361.98 L 278.84 360.27 L 280.95 354.74 L 281.53 354.30 L 287.68 353.28 L 292.24 353.36 L 296.77 354.45 L 299.09 354.54 L 301.43 354.17 L 303.25 352.68 L 306.38 347.29 L 308.14 344.92 L 310.16 342.78 L 312.05 340.33 L 315.11 335.80 L 313.04 337.36 L 310.54 339.84 Z"
       style="fill-rule: evenodd; fill: #ADD8E6; stroke-width: 0.43; stroke: #595959; stroke-linecap: butt;"
       id="path53" />
    <path
       d="M 280.78 281.59 L 281.60 282.23 L 283.65 282.13 L 282.97 283.55 L 280.71 285.13 L 279.19 286.70 L 277.35 288.01 L 276.46 286.51 L 275.43 286.56 L 273.84 283.68 L 273.56 279.36 L 275.62 278.23 L 278.48 278.30 L 280.78 281.59 Z"
       style="fill-rule: evenodd; fill: #ADD8E6; stroke-width: 0.43; stroke: #595959; stroke-linecap: butt;"
       id="path55" />
    <path
       d="M 312.85 78.91 L 310.65 78.95 L 311.79 76.92 L 313.11 76.41 L 315.61 76.64 L 315.17 77.55 L 312.85 78.91 Z"
       style="fill-rule: evenodd; fill: #ADD8E6; stroke-width: 0.43; stroke: #595959; stroke-linecap: butt;"
       id="path57" />
    <path
       d="M 342.17 34.92 L 341.67 35.32 L 339.77 31.84 L 341.18 27.85 L 342.88 27.97 L 343.16 29.02 L 342.99 29.98 L 342.12 30.07 L 342.04 30.36 L 342.31 32.21 L 342.33 34.36 L 342.17 34.92 Z"
       style="fill-rule: evenodd; fill: #ADD8E6; stroke-width: 0.43; stroke: #595959; stroke-linecap: butt;"
       id="path59" />
    <path
       d="M 337.00 34.11 L 337.40 36.53 L 338.41 35.90 L 339.92 38.22 L 340.70 38.22 L 341.97 37.30 L 341.72 39.46 L 340.39 45.45 L 340.02 46.46 L 339.77 48.28 L 339.51 48.64 L 339.12 52.32 L 338.22 53.53 L 337.47 56.42 L 337.17 56.71 L 336.07 55.59 L 337.17 51.18 L 337.62 48.61 L 337.33 47.28 L 336.71 46.09 L 335.03 46.05 L 333.62 46.60 L 333.32 45.89 L 333.28 44.94 L 332.94 44.62 L 331.06 44.69 L 330.51 44.43 L 330.15 43.55 L 330.08 42.86 L 331.77 42.31 L 333.37 42.52 L 335.70 41.13 L 334.25 36.48 L 332.31 36.04 L 331.87 35.59 L 332.24 34.80 L 333.30 34.38 L 334.93 32.01 L 335.91 31.64 L 337.12 31.71 L 337.00 34.11 Z"
       style="fill-rule: evenodd; fill: #ADD8E6; stroke-width: 0.43; stroke: #595959; stroke-linecap: butt;"
       id="path61" />
    <path
       d="M 347.39 24.70 L 347.39 25.09 L 346.38 27.99 L 346.39 29.09 L 344.76 28.99 L 344.51 28.63 L 344.20 26.97 L 344.40 25.21 L 344.63 24.75 L 345.11 24.56 L 345.62 24.91 L 346.43 24.02 L 346.85 24.04 L 347.39 24.70 Z"
       style="fill-rule: evenodd; fill: #ADD8E6; stroke-width: 0.43; stroke: #595959; stroke-linecap: butt;"
       id="path63" />
    <path
       d="M 300.86 93.90 L 299.75 94.35 L 298.65 94.32 L 296.93 92.34 L 296.27 90.90 L 296.39 89.94 L 297.12 89.62 L 298.78 90.09 L 299.64 91.74 L 299.75 92.81 L 299.95 93.24 L 300.99 93.66 L 300.86 93.90 Z"
       style="fill-rule: evenodd; fill: #ADD8E6; stroke-width: 0.43; stroke: #595959; stroke-linecap: butt;"
       id="path65" />
    <path
       d="M 305.45 95.70 L 305.26 95.81 L 304.55 95.18 L 303.38 92.92 L 305.22 92.48 L 306.09 92.75 L 305.76 93.71 L 305.45 95.70 Z"
       style="fill-rule: evenodd; fill: #ADD8E6; stroke-width: 0.43; stroke: #595959; stroke-linecap: butt;"
       id="path67" />
    <path
       d="M 302.95 85.83 L 302.70 86.67 L 304.18 86.65 L 306.32 87.37 L 307.62 87.46 L 308.69 88.36 L 308.10 90.03 L 307.45 90.50 L 306.72 90.60 L 304.17 88.92 L 300.83 89.62 L 300.16 89.40 L 299.73 88.94 L 299.54 88.37 L 299.54 87.20 L 299.36 86.85 L 298.15 87.96 L 297.62 87.83 L 297.32 87.30 L 297.19 86.20 L 297.32 84.61 L 298.03 82.36 L 299.23 81.90 L 301.03 82.17 L 303.08 83.45 L 303.70 84.23 L 303.68 84.86 L 302.95 85.83 Z"
       style="fill-rule: evenodd; fill: #ADD8E6; stroke-width: 0.43; stroke: #595959; stroke-linecap: butt;"
       id="path69" />
    <path
       d="M 309.34 80.44 L 307.67 81.29 L 306.95 80.58 L 306.77 78.38 L 304.78 77.43 L 303.81 76.85 L 303.06 75.73 L 303.25 75.39 L 304.55 74.94 L 306.76 76.95 L 307.67 78.58 L 309.31 79.06 L 309.52 79.31 L 309.34 80.44 Z"
       style="fill-rule: evenodd; fill: #ADD8E6; stroke-width: 0.43; stroke: #595959; stroke-linecap: butt;"
       id="path71" />
    <path
       d="M 233.86 169.66 L 232.76 169.85 L 232.68 169.37 L 234.60 167.05 L 235.84 166.67 L 236.28 166.89 L 235.37 168.24 L 233.86 169.66 Z"
       style="fill-rule: evenodd; fill: #ADD8E6; stroke-width: 0.43; stroke: #595959; stroke-linecap: butt;"
       id="path73" />
    <path
       d="M 263.10 208.63 L 260.64 208.65 L 259.76 208.36 L 258.70 207.52 L 257.51 202.82 L 257.93 201.15 L 258.42 200.33 L 258.96 199.70 L 260.25 199.43 L 261.54 200.33 L 262.03 201.15 L 263.11 204.34 L 263.31 207.07 L 263.10 208.63 Z"
       style="fill-rule: evenodd; fill: #ADD8E6; stroke-width: 0.43; stroke: #595959; stroke-linecap: butt;"
       id="path75" />
    <path
       d="M 250.01 177.92 L 242.26 179.83 L 239.59 179.66 L 239.35 178.72 L 239.88 178.10 L 242.09 177.49 L 242.99 172.90 L 239.64 170.79 L 239.47 170.20 L 239.73 169.19 L 240.12 168.74 L 242.14 167.68 L 243.00 167.44 L 243.69 167.58 L 245.11 168.81 L 246.73 171.40 L 248.88 171.81 L 250.34 172.90 L 250.01 177.92 Z"
       style="fill-rule: evenodd; fill: #ADD8E6; stroke-width: 0.43; stroke: #595959; stroke-linecap: butt;"
       id="path77" />
    <path
       d="M 243.18 192.11 L 243.88 196.51 L 244.57 199.24 L 244.61 200.18 L 243.97 201.47 L 240.76 203.20 L 239.75 203.21 L 239.71 202.79 L 240.43 201.03 L 239.81 199.04 L 240.11 197.53 L 239.82 197.25 L 239.19 197.47 L 236.89 199.87 L 236.13 200.11 L 236.04 199.62 L 236.61 197.65 L 236.68 196.30 L 237.02 195.48 L 237.65 194.71 L 238.39 194.14 L 238.99 194.06 L 239.63 194.65 L 241.49 193.00 L 243.18 192.11 Z"
       style="fill-rule: evenodd; fill: #ADD8E6; stroke-width: 0.43; stroke: #595959; stroke-linecap: butt;"
       id="path79" />
    <path
       d="M 246.27 196.09 L 245.86 196.46 L 244.88 196.35 L 244.51 195.80 L 244.31 194.95 L 244.29 193.39 L 244.88 192.28 L 247.41 190.59 L 246.27 189.99 L 246.22 189.57 L 246.87 188.17 L 249.59 186.00 L 250.31 185.60 L 251.04 185.66 L 249.63 189.53 L 246.27 196.09 Z"
       style="fill-rule: evenodd; fill: #ADD8E6; stroke-width: 0.43; stroke: #595959; stroke-linecap: butt;"
       id="path81" />
    <path
       d="M 241.82 108.68 L 239.35 114.66 L 238.38 114.81 L 237.53 116.30 L 234.90 117.95 L 237.19 117.99 L 237.84 118.53 L 237.86 119.72 L 237.41 120.41 L 234.44 123.15 L 232.39 124.19 L 230.19 127.05 L 229.07 127.09 L 227.97 128.91 L 227.07 129.71 L 226.56 129.71 L 225.97 129.31 L 224.60 127.52 L 227.08 125.77 L 227.31 124.78 L 229.01 123.76 L 228.87 123.44 L 226.18 122.00 L 225.12 121.03 L 225.22 120.52 L 226.51 119.41 L 225.90 119.26 L 225.48 118.66 L 224.73 118.43 L 224.51 117.87 L 224.37 116.39 L 224.57 114.89 L 225.35 114.22 L 225.67 113.51 L 225.99 113.29 L 227.21 113.67 L 228.44 114.88 L 229.88 114.41 L 231.55 114.64 L 231.58 114.36 L 230.36 111.40 L 230.58 110.80 L 231.24 110.11 L 235.10 108.00 L 239.90 104.45 L 241.07 103.89 L 241.42 104.38 L 241.91 106.21 L 241.82 108.68 Z"
       style="fill-rule: evenodd; fill: #ADD8E6; stroke-width: 0.43; stroke: #595959; stroke-linecap: butt;"
       id="path83" />
    <path
       d="M 240.26 156.64 L 239.68 157.08 L 238.95 157.00 L 238.23 156.43 L 237.27 154.82 L 239.41 153.70 L 240.27 154.36 L 240.60 155.11 L 240.62 155.94 L 240.26 156.64 Z"
       style="fill-rule: evenodd; fill: #ADD8E6; stroke-width: 0.43; stroke: #595959; stroke-linecap: butt;"
       id="path85" />
    <path
       d="M 242.87 138.11 L 242.84 139.63 L 242.50 141.41 L 242.95 143.30 L 243.05 144.65 L 243.87 145.08 L 244.37 145.71 L 248.02 146.40 L 251.41 146.21 L 252.06 146.77 L 252.14 147.65 L 251.60 148.63 L 249.67 150.41 L 247.37 153.28 L 246.68 153.88 L 245.94 153.91 L 245.40 153.65 L 245.02 148.53 L 242.52 149.19 L 240.51 149.11 L 239.41 148.49 L 238.64 147.29 L 237.08 144.20 L 232.54 142.99 L 231.26 141.29 L 230.88 140.26 L 231.04 139.69 L 231.98 138.43 L 233.17 138.88 L 233.90 138.60 L 234.34 138.04 L 234.33 137.58 L 233.71 136.48 L 233.68 136.13 L 238.32 134.74 L 238.73 132.56 L 239.73 132.39 L 240.88 133.10 L 242.46 135.36 L 242.87 138.11 Z"
       style="fill-rule: evenodd; fill: #ADD8E6; stroke-width: 0.43; stroke: #595959; stroke-linecap: butt;"
       id="path87" />
    <path
       d="M 222.23 132.01 L 224.42 133.94 L 222.67 137.14 L 219.99 137.13 L 216.21 134.79 L 216.19 134.31 L 216.51 133.61 L 217.07 133.05 L 217.66 132.92 L 218.60 133.30 L 219.91 132.69 L 220.95 132.88 L 222.23 132.01 Z"
       style="fill-rule: evenodd; fill: #ADD8E6; stroke-width: 0.43; stroke: #595959; stroke-linecap: butt;"
       id="path89" />
    <path
       d="M 221.36 151.48 L 220.54 151.67 L 219.47 151.48 L 218.80 150.95 L 218.13 148.84 L 218.01 147.57 L 218.31 145.20 L 218.24 142.36 L 220.46 142.27 L 221.03 142.68 L 221.41 151.10 L 221.36 151.48 Z"
       style="fill-rule: evenodd; fill: #ADD8E6; stroke-width: 0.43; stroke: #595959; stroke-linecap: butt;"
       id="path91" />
    <path
       d="M 218.11 156.62 L 216.40 157.09 L 215.77 156.81 L 215.66 156.38 L 216.05 155.20 L 217.36 154.78 L 218.31 155.42 L 218.46 156.00 L 218.11 156.62 Z"
       style="fill-rule: evenodd; fill: #ADD8E6; stroke-width: 0.43; stroke: #595959; stroke-linecap: butt;"
       id="path93" />
    <path
       d="M 241.45 255.27 L 239.78 255.06 L 238.61 255.67 L 237.85 256.24 L 237.12 256.14 L 235.02 256.35 L 233.04 256.31 L 232.76 255.41 L 233.10 252.71 L 232.66 251.98 L 230.77 251.61 L 230.07 250.97 L 228.98 249.10 L 228.77 248.23 L 228.62 247.03 L 227.47 245.48 L 226.08 244.37 L 225.26 244.32 L 223.63 246.13 L 222.28 247.97 L 222.76 248.89 L 223.20 250.10 L 222.47 250.97 L 220.26 252.97 L 219.91 253.74 L 219.31 254.16 L 218.26 253.61 L 215.63 253.74 L 214.42 253.38 L 213.02 251.92 L 209.59 250.93 L 209.01 248.58 L 208.35 248.15 L 204.46 244.11 L 203.95 242.76 L 204.45 241.96 L 205.90 240.74 L 210.78 238.73 L 211.55 237.91 L 211.70 237.20 L 210.27 236.38 L 208.98 235.47 L 208.54 234.88 L 208.51 234.37 L 209.24 233.70 L 210.71 233.65 L 211.87 233.95 L 212.80 233.35 L 214.42 232.74 L 215.52 231.98 L 216.45 230.01 L 217.44 228.24 L 217.55 227.28 L 218.42 223.91 L 218.89 223.07 L 221.97 220.87 L 222.75 222.07 L 224.27 222.37 L 225.63 221.26 L 227.26 217.76 L 228.39 217.54 L 229.64 217.83 L 232.09 217.39 L 236.44 215.76 L 238.38 215.73 L 241.13 216.59 L 243.17 216.57 L 244.99 219.07 L 245.97 223.00 L 248.23 226.90 L 251.20 230.28 L 251.32 232.35 L 250.26 233.47 L 248.04 234.85 L 248.05 236.32 L 249.51 235.58 L 250.77 235.24 L 253.81 235.56 L 254.88 237.07 L 255.61 239.32 L 255.99 241.16 L 255.73 243.17 L 254.92 242.53 L 254.08 240.74 L 253.16 239.91 L 252.09 239.46 L 252.58 241.93 L 252.38 245.23 L 252.85 245.54 L 254.29 245.59 L 253.34 248.97 L 251.37 249.89 L 249.07 250.23 L 248.52 251.42 L 248.10 252.97 L 246.90 255.26 L 245.32 256.56 L 243.36 256.30 L 241.45 255.27 Z"
       style="fill-rule: evenodd; fill: #ADD8E6; stroke-width: 0.43; stroke: #595959; stroke-linecap: butt;"
       id="path95" />
    <path
       d="M 341.72 371.83 L 340.09 373.01 L 339.57 374.40 L 339.18 374.95 L 338.10 375.30 L 337.03 375.31 L 332.97 372.53 L 332.03 372.65 L 332.96 371.38 L 335.49 370.34 L 336.91 368.97 L 340.19 370.30 L 341.72 371.83 Z"
       style="fill-rule: evenodd; fill: #ADD8E6; stroke-width: 0.43; stroke: #595959; stroke-linecap: butt;"
       id="path97" />
    <rect
       x="349.63"
       y="247.48"
       width="0.090"
       height="0.35"
       style="stroke-width: 4.27; stroke: #FF0000; stroke-linecap: butt; stroke-linejoin: miter;"
       id="rect99" />
    <rect
       x="337.35"
       y="244.80"
       width="0.24"
       height="0.29"
       style="stroke-width: 4.27; stroke: #FF0000; stroke-linecap: butt; stroke-linejoin: miter;"
       id="rect101" />
    <rect
       x="329.67"
       y="255.48"
       width="0.24"
       height="0.25"
       style="stroke-width: 4.27; stroke: #FF0000; stroke-linecap: butt; stroke-linejoin: miter;"
       id="rect103" />
    <rect
       x="318.54"
       y="235.64"
       width="0.072"
       height="0.10"
       style="stroke-width: 4.27; stroke: #FF0000; stroke-linecap: butt; stroke-linejoin: miter;"
       id="rect105" />
    <rect
       x="308.39"
       y="240.17"
       width="0.24"
       height="0.12"
       style="stroke-width: 4.27; stroke: #FF0000; stroke-linecap: butt; stroke-linejoin: miter;"
       id="rect107" />
    <rect
       x="298.38"
       y="238.37"
       width="0.088"
       height="0.081"
       style="stroke-width: 4.27; stroke: #FF0000; stroke-linecap: butt; stroke-linejoin: miter;"
       id="rect109" />
  </g>
  <g
     clip-path="url(#cpMC4wMHw1NzYuMDB8MC4wMHw0MzIuMDA=)"
     id="g183">
    <text
       x="169.93"
       y="398.61"
       style="font-size: 8.80px;fill: #4D4D4D; font-family: &quot;Arial&quot;;"
       textLength="9.79px"
       lengthAdjust="spacingAndGlyphs"
       id="text113">50</text>
    <text
       x="179.72"
       y="398.61"
       style="font-size: 8.80px;fill: #4D4D4D; font-family: &quot;Arial&quot;;"
       textLength="3.32px"
       lengthAdjust="spacingAndGlyphs"
       id="text115">°</text>
    <text
       x="183.04"
       y="398.61"
       style="font-size: 8.80px;fill: #4D4D4D; font-family: &quot;Arial&quot;;"
       textLength="6.35px"
       lengthAdjust="spacingAndGlyphs"
       id="text117">N</text>
    <text
       x="169.93"
       y="330.02"
       style="font-size: 8.80px;fill: #4D4D4D; font-family: &quot;Arial&quot;;"
       textLength="9.79px"
       lengthAdjust="spacingAndGlyphs"
       id="text119">52</text>
    <text
       x="179.72"
       y="330.02"
       style="font-size: 8.80px;fill: #4D4D4D; font-family: &quot;Arial&quot;;"
       textLength="3.32px"
       lengthAdjust="spacingAndGlyphs"
       id="text121">°</text>
    <text
       x="183.04"
       y="330.02"
       style="font-size: 8.80px;fill: #4D4D4D; font-family: &quot;Arial&quot;;"
       textLength="6.35px"
       lengthAdjust="spacingAndGlyphs"
       id="text123">N</text>
    <text
       x="169.93"
       y="261.41"
       style="font-size: 8.80px;fill: #4D4D4D; font-family: &quot;Arial&quot;;"
       textLength="9.79px"
       lengthAdjust="spacingAndGlyphs"
       id="text125">54</text>
    <text
       x="179.72"
       y="261.41"
       style="font-size: 8.80px;fill: #4D4D4D; font-family: &quot;Arial&quot;;"
       textLength="3.32px"
       lengthAdjust="spacingAndGlyphs"
       id="text127">°</text>
    <text
       x="183.04"
       y="261.41"
       style="font-size: 8.80px;fill: #4D4D4D; font-family: &quot;Arial&quot;;"
       textLength="6.35px"
       lengthAdjust="spacingAndGlyphs"
       id="text129">N</text>
    <text
       x="169.93"
       y="192.84"
       style="font-size: 8.80px;fill: #4D4D4D; font-family: &quot;Arial&quot;;"
       textLength="9.79px"
       lengthAdjust="spacingAndGlyphs"
       id="text131">56</text>
    <text
       x="179.72"
       y="192.84"
       style="font-size: 8.80px;fill: #4D4D4D; font-family: &quot;Arial&quot;;"
       textLength="3.32px"
       lengthAdjust="spacingAndGlyphs"
       id="text133">°</text>
    <text
       x="183.04"
       y="192.84"
       style="font-size: 8.80px;fill: #4D4D4D; font-family: &quot;Arial&quot;;"
       textLength="6.35px"
       lengthAdjust="spacingAndGlyphs"
       id="text135">N</text>
    <text
       x="169.93"
       y="124.25"
       style="font-size: 8.80px;fill: #4D4D4D; font-family: &quot;Arial&quot;;"
       textLength="9.79px"
       lengthAdjust="spacingAndGlyphs"
       id="text137">58</text>
    <text
       x="179.72"
       y="124.25"
       style="font-size: 8.80px;fill: #4D4D4D; font-family: &quot;Arial&quot;;"
       textLength="3.32px"
       lengthAdjust="spacingAndGlyphs"
       id="text139">°</text>
    <text
       x="183.04"
       y="124.25"
       style="font-size: 8.80px;fill: #4D4D4D; font-family: &quot;Arial&quot;;"
       textLength="6.35px"
       lengthAdjust="spacingAndGlyphs"
       id="text141">N</text>
    <text
       x="169.93"
       y="55.66"
       style="font-size: 8.80px;fill: #4D4D4D; font-family: &quot;Arial&quot;;"
       textLength="9.79px"
       lengthAdjust="spacingAndGlyphs"
       id="text143">60</text>
    <text
       x="179.72"
       y="55.66"
       style="font-size: 8.80px;fill: #4D4D4D; font-family: &quot;Arial&quot;;"
       textLength="3.32px"
       lengthAdjust="spacingAndGlyphs"
       id="text145">°</text>
    <text
       x="183.04"
       y="55.66"
       style="font-size: 8.80px;fill: #4D4D4D; font-family: &quot;Arial&quot;;"
       textLength="6.35px"
       lengthAdjust="spacingAndGlyphs"
       id="text147">N</text>
    <text
       x="197.28"
       y="424.56"
       style="font-size: 8.80px;fill: #4D4D4D; font-family: &quot;Arial&quot;;"
       textLength="7.34px"
       lengthAdjust="spacingAndGlyphs"
       id="text149"> 8</text>
    <text
       x="204.63"
       y="424.56"
       style="font-size: 8.80px;fill: #4D4D4D; font-family: &quot;Arial&quot;;"
       textLength="3.32px"
       lengthAdjust="spacingAndGlyphs"
       id="text151">°</text>
    <text
       x="207.95"
       y="424.56"
       style="font-size: 8.80px;fill: #4D4D4D; font-family: &quot;Arial&quot;;"
       textLength="8.30px"
       lengthAdjust="spacingAndGlyphs"
       id="text153">W</text>
    <text
       x="236.21"
       y="424.56"
       style="font-size: 8.80px;fill: #4D4D4D; font-family: &quot;Arial&quot;;"
       textLength="7.34px"
       lengthAdjust="spacingAndGlyphs"
       id="text155"> 6</text>
    <text
       x="243.55"
       y="424.56"
       style="font-size: 8.80px;fill: #4D4D4D; font-family: &quot;Arial&quot;;"
       textLength="3.32px"
       lengthAdjust="spacingAndGlyphs"
       id="text157">°</text>
    <text
       x="246.87"
       y="424.56"
       style="font-size: 8.80px;fill: #4D4D4D; font-family: &quot;Arial&quot;;"
       textLength="8.30px"
       lengthAdjust="spacingAndGlyphs"
       id="text159">W</text>
    <text
       x="275.13"
       y="424.53"
       style="font-size: 8.80px;fill: #4D4D4D; font-family: &quot;Arial&quot;;"
       textLength="7.34px"
       lengthAdjust="spacingAndGlyphs"
       id="text161"> 4</text>
    <text
       x="282.47"
       y="424.53"
       style="font-size: 8.80px;fill: #4D4D4D; font-family: &quot;Arial&quot;;"
       textLength="3.32px"
       lengthAdjust="spacingAndGlyphs"
       id="text163">°</text>
    <text
       x="285.79"
       y="424.53"
       style="font-size: 8.80px;fill: #4D4D4D; font-family: &quot;Arial&quot;;"
       textLength="8.30px"
       lengthAdjust="spacingAndGlyphs"
       id="text165">W</text>
    <text
       x="314.05"
       y="424.56"
       style="font-size: 8.80px;fill: #4D4D4D; font-family: &quot;Arial&quot;;"
       textLength="7.34px"
       lengthAdjust="spacingAndGlyphs"
       id="text167"> 2</text>
    <text
       x="321.39"
       y="424.56"
       style="font-size: 8.80px;fill: #4D4D4D; font-family: &quot;Arial&quot;;"
       textLength="3.32px"
       lengthAdjust="spacingAndGlyphs"
       id="text169">°</text>
    <text
       x="324.71"
       y="424.56"
       style="font-size: 8.80px;fill: #4D4D4D; font-family: &quot;Arial&quot;;"
       textLength="8.30px"
       lengthAdjust="spacingAndGlyphs"
       id="text171">W</text>
    <text
       x="357.12"
       y="424.56"
       style="font-size: 8.80px;fill: #4D4D4D; font-family: &quot;Arial&quot;;"
       textLength="7.34px"
       lengthAdjust="spacingAndGlyphs"
       id="text173"> 0</text>
    <text
       x="364.47"
       y="424.56"
       style="font-size: 8.80px;fill: #4D4D4D; font-family: &quot;Arial&quot;;"
       textLength="3.32px"
       lengthAdjust="spacingAndGlyphs"
       id="text175">°</text>
    <text
       x="393.11"
       y="424.56"
       style="font-size: 8.80px;fill: #4D4D4D; font-family: &quot;Arial&quot;;"
       textLength="7.34px"
       lengthAdjust="spacingAndGlyphs"
       id="text177"> 2</text>
    <text
       x="400.46"
       y="424.56"
       style="font-size: 8.80px;fill: #4D4D4D; font-family: &quot;Arial&quot;;"
       textLength="3.32px"
       lengthAdjust="spacingAndGlyphs"
       id="text179">°</text>
    <text
       x="403.78"
       y="424.56"
       style="font-size: 8.80px;fill: #4D4D4D; font-family: &quot;Arial&quot;;"
       textLength="5.87px"
       lengthAdjust="spacingAndGlyphs"
       id="text181">E</text>
  </g>
  <text
     xml:space="preserve"
     style="font-size:5.552px;line-height:1.25;font-family:sans-serif;-inkscape-font-specification:'sans-serif, Normal';font-variant-ligatures:none;stroke-width:0.1735"
     x="296.64041"
     y="240.39223"
     id="text470"><tspan
       sodipodi:role="line"
       id="tspan468"
       style="stroke-width:0.1735"
       x="296.64041"
       y="240.39223">1</tspan></text>
  <text
     xml:space="preserve"
     style="font-size:5.552px;line-height:1.25;font-family:sans-serif;-inkscape-font-specification:'sans-serif, Normal';font-variant-ligatures:none;white-space:pre;stroke-width:0.1735"
     x="306.80084"
     y="242.29021"
     id="text470-7"><tspan
       sodipodi:role="line"
       id="tspan468-2"
       style="stroke-width:0.1735"
       x="306.80084"
       y="242.29021">2</tspan></text>
  <text
     xml:space="preserve"
     style="font-size:5.552px;line-height:1.25;font-family:sans-serif;-inkscape-font-specification:'sans-serif, Normal';font-variant-ligatures:none;white-space:pre;stroke-width:0.1735"
     x="316.84708"
     y="237.68919"
     id="text470-1"><tspan
       sodipodi:role="line"
       id="tspan468-5"
       style="stroke-width:0.1735"
       x="316.84708"
       y="237.68919">3</tspan></text>
  <text
     xml:space="preserve"
     style="font-size:5.552px;line-height:1.25;font-family:sans-serif;-inkscape-font-specification:'sans-serif, Normal';font-variant-ligatures:none;white-space:pre;stroke-width:0.1735"
     x="328.03296"
     y="257.65503"
     id="text470-2"><tspan
       sodipodi:role="line"
       id="tspan468-0"
       style="stroke-width:0.1735"
       x="328.03296"
       y="257.65503">4</tspan></text>
  <text
     xml:space="preserve"
     style="font-size:5.552px;line-height:1.25;font-family:sans-serif;-inkscape-font-specification:'sans-serif, Normal';font-variant-ligatures:none;white-space:pre;stroke-width:0.1735"
     x="335.69989"
     y="246.96886"
     id="text470-2-3"><tspan
       sodipodi:role="line"
       id="tspan468-0-9"
       style="stroke-width:0.1735"
       x="335.69989"
       y="246.96886">5</tspan></text>
  <text
     xml:space="preserve"
     style="font-size:5.552px;line-height:1.25;font-family:sans-serif;-inkscape-font-specification:'sans-serif, Normal';font-variant-ligatures:none;white-space:pre;stroke-width:0.1735"
     x="347.9411"
     y="249.71255"
     id="text470-2-2"><tspan
       sodipodi:role="line"
       id="tspan468-0-4"
       style="stroke-width:0.1735"
       x="347.9411"
       y="249.71255">6</tspan></text>
</svg>
